<svg width="691" height="480" viewBox="0 0 691 480" fill="none" xmlns="http://www.w3.org/2000/svg">
<path d="M8.02374 479.014C4.84602 477.696 2.30419 475.154 0.986441 471.976L1.21738 471.88C0.594118 470.378 0.25 468.729 0.25 467V462.947H0V454.839H0.25V446.732H0V438.625H0.25V430.518H0V422.411H0.25V414.304H0V406.197H0.25V398.089H0V389.982H0.25V381.875H0V373.768H0.25V365.661H0V357.554H0.25V349.447H0V341.339H0.25V333.232H0V325.125H0.25V317.018H0V308.911H0.25V300.804H0V292.696H0.25V284.589H0V276.482H0.25V268.375H0V260.268H0.25V252.161H0V244.054H0.25V235.946H0V227.839H0.25V219.732H0V211.625H0.25V203.518H0V195.411H0.25V187.304H0V179.196H0.25V171.089H0V162.982H0.25V154.875H0V146.768H0.25V138.661H0V130.554H0.25V122.446H0V114.339H0.25V106.232H0V98.125H0.25V90.0179H0V81.9107H0.25V73.8036H0V65.6964H0.25V57.5893H0V49.4821H0.25V41.375H0V33.2679H0.25V25.1607H0V17.0536H0.25V13C0.25 11.2707 0.594119 9.6225 1.21738 8.11952L0.986447 8.02376C2.3042 4.84603 4.84603 2.3042 8.02376 0.986447L8.11952 1.21738C9.6225 0.594119 11.2707 0.25 13 0.25H17V0H25V0.25H33V0H41V0.25H49V0H57V0.25H65V0H73V0.25H81V0H89V0.25H97V0H105V0.25H113V0H121V0.25H129V0H137V0.25H145V0H153V0.25H161V0H169V0.25H177V0H185V0.25H193V0H201V0.25H209V0H217V0.25H225V0H233V0.25H241V0H249V0.25H257V0H265V0.25H273V0H281V0.25H289V0H297V0.25H305V0H313V0.25H321V0H329V0.25H337V0H345V0.25H353V0H361V0.25H369V0H377V0.25H385V0H393V0.25H401V0H409V0.25H417V0H425V0.25H433V0H441V0.25H449V0H457V0.25H465V0H473V0.25H481V0H489V0.25H497V0H505V0.25H513V0H521V0.25H529V0H537V0.25H545V0H553V0.25H561V0H569V0.25H577V0H585V0.25H593V0H601V0.25H609V0H617V0.25H625V0H633V0.25H641V0H649V0.25H657V0H665V0.25H673V0H681V0.25H689V0H697V0.25H700.75V4H701V12H700.75V20H701V28H700.75V36H701V44H700.75V52H701V60H700.75V68H701V76H700.75V84H701V92H700.75V100H701V108H700.75V116H701V124H700.75V132H701V140H700.75V148H701V156H700.75V164H701V172H700.75V180H701V188H700.75V196H701V204H700.75V212H701V220H700.75V228H701V236H700.75V244H701V252H700.75V260H701V268H700.75V276H701V284H700.75V292H701V300H700.75V308H701V316H700.75V324H701V332H700.75V340H701V348H700.75V356H701V364H700.75V372H701V380H700.75V388H701V396H700.75V404H701V412H700.75V420H701V428H700.75V436H701V444H700.75V452H701V460H700.75V468H701V476H700.75V479.75H697V480H689V479.75H681V480H673V479.75H665V480H657V479.75H649V480H641V479.75H633V480H625V479.75H617V480H609V479.75H601V480H593V479.75H585V480H577V479.75H569V480H561V479.75H553V480H545V479.75H537V480H529V479.75H521V480H513V479.75H505V480H497V479.75H489V480H481V479.75H473V480H465V479.75H457V480H449V479.75H441V480H433V479.75H425V480H417V479.75H409V480H401V479.75H393V480H385V479.75H377V480H369V479.75H361V480H353V479.75H345V480H337V479.75H329V480H321V479.75H313V480H305V479.75H297V480H289V479.75H281V480H273V479.75H265V480H257V479.75H249V480H241V479.75H233V480H225V479.75H217V480H209V479.75H201V480H193V479.75H185V480H177V479.75H169V480H161V479.75H153V480H145V479.75H137V480H129V479.75H121V480H113V479.75H105V480H97V479.75H89V480H81V479.75H73V480H65V479.75H57V480H49V479.75H41V480H33V479.75H25V480H17V479.75H13C11.2707 479.75 9.62248 479.406 8.11951 478.783L8.02374 479.014Z" fill="white" stroke="#E0CE57" stroke-width="0.5" stroke-dasharray="8 8"/>
</svg>
